<?xml version="1.0" encoding="utf-8"?>
<!-- Generator: Adobe Illustrator 25.2.1, SVG Export Plug-In . SVG Version: 6.00 Build 0)  -->
<svg version="1.1" id="Calque_1" xmlns="http://www.w3.org/2000/svg" xmlns:xlink="http://www.w3.org/1999/xlink" x="0px" y="0px"
	 viewBox="0 0 841.9 595.3" style="enable-background:new 0 0 841.9 595.3;" xml:space="preserve">
<style type="text/css">
	.st0{fill:#F27B13;}
	.st1{fill:#F29441;}
	.st2{fill:#F26513;}
</style>
<g>
	<g>
		<g>
			<path class="st0" d="M472.7,250.8L472.7,250.8c-6.9-0.5-13.7-0.9-20.7-1.2c-9.8-0.4-19.7-0.7-29.7-0.7c-15.7,0-31.1,0.5-46.2,1.6
				h0c-3.1,0.2-6.1,0.4-9.1,0.7l-39.1,70.3l-15.6,28c13.1-3.6,27-6.5,41.6-8.7c16-2.5,32.7-4.1,50-4.6c5.2-0.2,10.5-0.3,15.8-0.3
				c12.4,0,24.6,0.5,36.5,1.5l46.5-83.6C492.9,252.5,482.9,251.5,472.7,250.8z"/>
			<path class="st0" d="M535.5,352l-42.3,76.2c15.6,5,29.8,11.6,42.2,19.4L579,369C566,362.5,551.4,356.7,535.5,352z"/>
			<path class="st0" d="M305.7,446.7l18.4,33.1l17.2,30.9c1.3,2.4,4.1,3.4,6.7,2.6c4.1-1.3,8.3-2.5,12.6-3.6l51.4-92.6
				c-20.5,0.6-39.9,3.7-57.8,8.7C336.2,430.9,319.8,438,305.7,446.7z"/>
		</g>
		<g>
			<path class="st1" d="M419.8,417c-2.6,0-5.2,0-7.8,0.1l-51.4,92.6c18.7-4.8,39-7.4,60.2-7.4c10.3,0,20.4,0.6,30.2,1.8
				c15,1.8,29.3,4.9,42.6,9.2c2.6,0.8,5.4-0.2,6.7-2.6l35.1-63.1c-12.4-7.8-26.7-14.4-42.2-19.4C471,421,446.1,417,419.8,417z"/>
			<path class="st1" d="M403.9,336.2c-17.3,0.6-34.1,2.2-50,4.6c-14.6,2.2-28.5,5.2-41.6,8.7c-18.4,5.1-35.3,11.3-50.1,18.7L282,404
				l23.7,42.6c14.1-8.7,30.5-15.8,48.4-20.8l38.8-69.9L403.9,336.2z"/>
			<path class="st1" d="M581.7,268.8c-8.6-2.3-17.4-4.4-26.4-6.4c-16.8-3.6-34.4-6.5-52.5-8.7l-46.5,83.6c11.8,1,23.3,2.4,34.3,4.2
				c15.8,2.6,30.8,6.1,44.9,10.4c15.9,4.8,30.5,10.5,43.5,17.1l44.5-80.1c1.7-3,0.3-6.8-2.9-8C608.2,276.5,595.2,272.4,581.7,268.8z
				"/>
		</g>
	</g>
	<g>
		<path class="st2" d="M290.6,262.2c-24.6,5.2-47.8,11.9-69,19.7c-3.2,1.2-4.6,5-2.9,8l43.5,78.3c14.8-7.3,31.7-13.6,50.1-18.7
			l15.6-28l39.1-70.3C340.3,253.4,314.7,257.1,290.6,262.2z"/>
		<path class="st2" d="M490.6,341.6c-11.1-1.8-22.5-3.3-34.3-4.2c-11.9-1-24.1-1.5-36.5-1.5c-5.3,0-10.6,0.1-15.8,0.3l-11,19.8
			l-38.8,69.9c17.9-5.1,37.4-8.1,57.8-8.7c2.6-0.1,5.2-0.1,7.8-0.1c26.3,0,51.2,4,73.4,11.2l42.3-76.2
			C521.4,347.7,506.4,344.2,490.6,341.6z"/>
	</g>
	<path class="st0" d="M551,166.9c-6.8-16.3-16.7-31-28.9-43.5c-17.2-17.6-39-30.6-63.5-37.1c-9.7-2.6-19.9-4.1-30.3-4.5
		c-73.6-2.8-135.9,51-143.4,124.3c-2,19.7,0.2,38.7,5.7,56.1c24.2-5.1,49.8-8.8,76.4-11c3-0.3,6.1-0.5,9.1-0.7
		c-1.6-2.7-3-5.5-4.1-8.5c-2.4-6.2-3.7-12.9-3.7-20c0-27.3,19.5-50.1,45.4-55.1c3.5-0.7,7-1,10.7-1c24.6,0,45.5,15.8,53,37.8
		c2,5.7,3.1,11.9,3.1,18.4c0,10.5-2.9,20.4-7.9,28.7c10.2,0.7,20.2,1.7,30,3c18.1,2.2,35.6,5.1,52.5,8.7c4.2-13.3,6.5-27.3,6.5-42
		C561.7,201.5,557.9,183.4,551,166.9z"/>
</g>
</svg>
